# xmcd
#
# Track frame offsets:
#   150
#   13673
#   29169
#   44345
#   55952
#   70511
#   84906
#   97567
#   111999
#   126770
#   144348
#   158992
#   180142
#   195385
#   208751
#   218465
#   233254
#   250235
#   264412
#   285309
#   299377
#   312939
#   326166
#   343437
#
# Disc length: 4708 seconds
#
# Revision: 0
# Processed by: cddbd v1.5.1PL2 Copyright (c) Steve Scherf et al.
# Submitted via: GXTranscoder 2.0.1939
#
DISCID=4f126218
DTITLE=Amar azul - Cumbia nena
DYEAR=1900
DGENRE=Latin
TTITLE0=Besame
TTITLE1=Quiero tu cuerpo
TTITLE2=De la cabeza
TTITLE3=Dime tu
TTITLE4=El atorrante
TTITLE5=El bardero
TTITLE6=El segundo polvito
TTITLE7=El travieso
TTITLE8=La banda Azul
TTITLE9=La cumbia
TTITLE10=Lagrimas
TTITLE11=Me pega la cerveza
TTITLE12=Niña
TTITLE13=Si tu amor
TTITLE14=Tomo para olvidarte
TTITLE15=Tomo y me delirio
TTITLE16=Un polvito raro
TTITLE17=Explicale
TTITLE18=Moviendo el culito
TTITLE19=Yo me enamore
TTITLE20=El polvito del amor
TTITLE21=Tomo licor
TTITLE22=La loba
TTITLE23=Tu mujer me encanta
EXTD=
EXTT0=
EXTT1=
EXTT2=
EXTT3=
EXTT4=
EXTT5=
EXTT6=
EXTT7=
EXTT8=
EXTT9=
EXTT10=
EXTT11=
EXTT12=
EXTT13=
EXTT14=
EXTT15=
EXTT16=
EXTT17=
EXTT18=
EXTT19=
EXTT20=
EXTT21=
EXTT22=
EXTT23=
PLAYORDER=
